<svg xmlns="http://www.w3.org/2000/svg" viewBox="0 0 512 512">
  <path fill="white" d="M497.9 14.21c-19.16-19.06-50.55-18.78-69.34 .734l-254.1 262.8c-11.75 12.16-18.41 28.5-18.41 45.47v125.6c0 14.44 11.66 26.25 26.11 26.25h115c17.5 0 34.34-6.875 46.88-19.12l253.2-248.8C516.3 187.9 517.1 156.4 497.9 14.21zM286.7 341.3c-4.438 4.344-10.47 6.688-16.63 6.688c-6.062 0-12.03-2.312-16.62-6.844c-9.375-9.188-9.5-24.25-.25-33.56l135.2-139.7c9.375-9.688 24.69-9.875 33.94-.6562c9.375 9.188 9.5 24.25 .25 33.56L286.7 341.3zM100.9 444.9l-65.41 65.41c-6.25 6.25-16.38 6.25-22.62 0c-6.25-6.25-6.25-16.38 0-22.62l65.41-65.41C84.34 430.7 92 437.8 100.9 444.9z"/>
</svg>